<svg width="1200" height="800" viewBox="0 0 1200 800" fill="none" xmlns="http://www.w3.org/2000/svg">
  <rect width="1200" height="800" fill="#E9F3EC"/>
  <circle cx="180" cy="160" r="130" fill="#F59E0B" opacity="0.16"/>
  <circle cx="1020" cy="620" r="180" fill="#4D9F58" opacity="0.14"/>
  <path d="M240 560C318 474 418 446 520 468C645 496 708 595 828 618C962 644 1030 560 1080 500" stroke="#1F5C7A" stroke-width="22" stroke-linecap="round" opacity="0.2"/>
  <rect x="170" y="230" width="330" height="300" rx="34" fill="white" opacity="0.55"/>
  <path d="M300 320C300 280 330 250 370 250C410 250 440 280 440 320C440 380 370 430 370 430C370 430 300 380 300 320Z" fill="#EA8F2C" opacity="0.92"/>
  <path d="M370 278V372" stroke="white" stroke-width="18" stroke-linecap="round"/>
  <path d="M324 324H416" stroke="white" stroke-width="18" stroke-linecap="round"/>
  <text x="170" y="590" fill="#17313A" font-family="Arial, Helvetica, sans-serif" font-size="48" font-weight="800">Pain Relief</text>
  <text x="170" y="642" fill="#5F6F78" font-family="Arial, Helvetica, sans-serif" font-size="28">Reduce pain, restore comfort</text>
</svg>