<svg width="1200" height="800" viewBox="0 0 1200 800" fill="none" xmlns="http://www.w3.org/2000/svg">
  <rect width="1200" height="800" fill="#EEF8F7"/>
  <circle cx="980" cy="140" r="150" fill="#1F5C7A" opacity="0.14"/>
  <circle cx="210" cy="650" r="170" fill="#4D9F58" opacity="0.12"/>
  <path d="M280 520C350 410 450 370 560 390C680 412 750 520 860 544C944 563 1010 532 1060 490" stroke="#EA8F2C" stroke-width="22" stroke-linecap="round" opacity="0.9"/>
  <rect x="160" y="190" width="360" height="290" rx="34" fill="white" opacity="0.56"/>
  <path d="M320 250C280 250 250 280 250 320C250 360 280 390 320 390C360 390 390 360 390 320C390 280 360 250 320 250Z" stroke="#4D9F58" stroke-width="18"/>
  <path d="M320 270V370" stroke="#1F5C7A" stroke-width="18" stroke-linecap="round"/>
  <path d="M280 320H360" stroke="#1F5C7A" stroke-width="18" stroke-linecap="round"/>
  <text x="160" y="590" fill="#17313A" font-family="Arial, Helvetica, sans-serif" font-size="48" font-weight="800">Neuro Rehab</text>
  <text x="160" y="642" fill="#5F6F78" font-family="Arial, Helvetica, sans-serif" font-size="28">Support for mobility and control</text>
</svg>